<?xml version="1.0" standalone="no"?>
<!DOCTYPE svg PUBLIC "-//W3C//DTD SVG 20010904//EN"
 "http://www.w3.org/TR/2001/REC-SVG-20010904/DTD/svg10.dtd">
<svg version="1.0" xmlns="http://www.w3.org/2000/svg"
 width="111.000000pt" height="111.000000pt" viewBox="0 0 111.000000 111.000000"
 preserveAspectRatio="xMidYMid meet">
<metadata>
Created by potrace 1.11, written by Peter Selinger 2001-2013
</metadata>
<g transform="translate(0.000000,111.000000) scale(0.100000,-0.100000)"
fill="#000000" stroke="none">
<path d="M613 1095 c-54 -12 -124 -54 -148 -88 -10 -14 -27 -19 -67 -20 -63
-2 -107 -29 -132 -81 -10 -21 -27 -38 -44 -44 -109 -38 -167 -186 -114 -288
50 -97 93 -118 242 -119 108 0 115 1 115 20 0 19 -7 20 -101 21 -119 2 -163
18 -200 73 -59 90 -31 194 65 243 39 20 58 38 73 67 12 25 31 44 51 52 39 17
44 17 79 8 27 -7 45 2 65 34 39 61 147 96 228 76 65 -17 138 -87 155 -149 7
-25 14 -51 16 -58 2 -7 12 -15 21 -19 103 -37 141 -160 78 -254 -36 -55 -81
-71 -199 -73 -94 -1 -101 -2 -101 -21 0 -18 8 -20 95 -23 111 -4 157 7 206 50
107 94 101 250 -13 333 -28 20 -46 42 -52 65 -17 59 -66 124 -116 158 -27 18
-53 32 -59 32 -6 1 -29 4 -51 9 -24 4 -61 3 -92 -4z"/>
<path d="M538 444 c-32 -52 -58 -102 -58 -110 0 -13 13 -16 103 -16 15 -1 27
-4 27 -7 0 -4 -23 -44 -51 -90 -43 -70 -49 -85 -38 -97 8 -7 19 -10 25 -6 16
11 134 211 134 227 0 12 -15 15 -65 15 -36 0 -65 3 -65 6 0 4 19 39 43 78 44
72 49 96 19 96 -10 -1 -39 -38 -74 -96z"/>
</g>
</svg>
